<?xml version="1.0" standalone="no"?>
<!DOCTYPE svg PUBLIC "-//W3C//DTD SVG 20010904//EN"
 "http://www.w3.org/TR/2001/REC-SVG-20010904/DTD/svg10.dtd">
<svg version="1.0" xmlns="http://www.w3.org/2000/svg"
 width="512.000000pt" height="512.000000pt" viewBox="0 0 512 512"
 preserveAspectRatio="xMidYMid meet">
<g transform="translate(0,512) scale(0.1,-0.1)"
fill="#000000" stroke="none">
	<path d="M1250 5104 c-170 -36 -323 -158 -398 -315 -22 -46 -45 -108 -51 -137
-7 -34 -11 -239 -11 -582 l0 -530 195 0 195 0 0 503 c0 337 4 515 11 542 17
62 82 120 149 134 40 8 436 11 1451 9 l1396 -3 48 -30 c32 -20 56 -45 72 -74
l23 -44 0 -2017 0 -2017 -23 -44 c-16 -29 -40 -54 -72 -74 l-48 -30 -1396 -3
c-1015 -2 -1411 1 -1451 9 -67 14 -132 72 -149 134 -7 27 -11 205 -11 543 l0
502 -195 0 -195 0 0 -530 c0 -343 4 -548 11 -582 6 -29 29 -91 51 -137 76
-160 230 -280 406 -316 63 -13 264 -15 1535 -13 1462 3 1462 3 1517 24 111 43
166 77 241 153 82 82 134 173 160 281 21 82 21 4118 0 4200 -26 108 -78 199
-160 281 -75 76 -130 110 -241 153 l-55 21 -1470 2 c-1233 1 -1480 -1 -1535
-13z" fill="black" stroke="#ADC7A6" stroke-width="32"/>
	<path d="M1653 3830 c-67 -41 -67 -42 -73 -375 l-5 -300 -620 -5 c-674 -5
-648 -3 -701 -62 -55 -59 -54 -53 -54 -528 0 -475 -1 -469 54 -528 53 -59 27
-57 701 -62 l620 -5 5 -290 c3 -189 9 -299 17 -316 6 -14 26 -38 43 -53 28
-23 40 -26 85 -24 l53 3 731 633 c402 349 731 637 731 642 0 10 -1456 1272
-1479 1282 -31 13 -76 8 -108 -12z" fill="black" stroke="#ADC7A6" stroke-width="32"/>
</g>
</svg>
